<?xml version="1.0" encoding="utf-8"?>
<!-- Generator: Adobe Illustrator 25.4.1, SVG Export Plug-In . SVG Version: 6.00 Build 0)  -->
<svg version="1.1" id="Layer_1" xmlns="http://www.w3.org/2000/svg" xmlns:xlink="http://www.w3.org/1999/xlink" x="0px" y="0px"
	 viewBox="0 0 673.8 654.4" style="enable-background:new 0 0 673.8 654.4;" xml:space="preserve">
<style type="text/css">
	.st0{fill:#FFFFFF;}
	.st1{fill:none;stroke:#FF0000;stroke-linecap:round;stroke-miterlimit:10;}
</style>
<g>
	<rect x="86.9" y="45" class="st0" width="500" height="500"/>
	<path class="st1" d="M86.9,45h50v50L86.9,45z"/>
	<path class="st1" d="M86.9,45v50h50L86.9,45z"/>
	<path class="st1" d="M136.9,45h50v50L136.9,45z"/>
	<path class="st1" d="M136.9,45v50h50L136.9,45z"/>
	<path class="st1" d="M186.9,45h50v50L186.9,45z"/>
	<path class="st1" d="M186.9,45v50h50L186.9,45z"/>
	<path class="st1" d="M236.9,45h50v50L236.9,45z"/>
	<path class="st1" d="M236.9,45v50h50L236.9,45z"/>
	<path class="st1" d="M286.9,45h50v50L286.9,45z"/>
	<path class="st1" d="M286.9,45v50h50L286.9,45z"/>
	<path class="st1" d="M336.9,45h50v50L336.9,45z"/>
	<path class="st1" d="M336.9,45v50h50L336.9,45z"/>
	<path class="st1" d="M386.9,45h50v50L386.9,45z"/>
	<path class="st1" d="M386.9,45v50h50L386.9,45z"/>
	<path class="st1" d="M436.9,45h50v50L436.9,45z"/>
	<path class="st1" d="M436.9,45v50h50L436.9,45z"/>
	<path class="st1" d="M486.9,45h50v50L486.9,45z"/>
	<path class="st1" d="M486.9,45v50h50L486.9,45z"/>
	<path class="st1" d="M536.9,45h50v50L536.9,45z"/>
	<path class="st1" d="M536.9,45v50h50L536.9,45z"/>
	<path class="st1" d="M86.9,95h50v50L86.9,95z"/>
	<path class="st1" d="M86.9,95v50h50L86.9,95z"/>
	<path class="st1" d="M136.9,95h50v50L136.9,95z"/>
	<path class="st1" d="M136.9,95v50h50L136.9,95z"/>
	<path class="st1" d="M186.9,95h50v50L186.9,95z"/>
	<path class="st1" d="M186.9,95v50h50L186.9,95z"/>
	<path class="st1" d="M236.9,95h50v50L236.9,95z"/>
	<path class="st1" d="M236.9,95v50h50L236.9,95z"/>
	<path class="st1" d="M286.9,95h50v50L286.9,95z"/>
	<path class="st1" d="M286.9,95v50h50L286.9,95z"/>
	<path class="st1" d="M336.9,95h50v50L336.9,95z"/>
	<path class="st1" d="M336.9,95v50h50L336.9,95z"/>
	<path class="st1" d="M386.9,95h50v50L386.9,95z"/>
	<path class="st1" d="M386.9,95v50h50L386.9,95z"/>
	<path class="st1" d="M436.9,95h50v50L436.9,95z"/>
	<path class="st1" d="M436.9,95v50h50L436.9,95z"/>
	<path class="st1" d="M486.9,95h50v50L486.9,95z"/>
	<path class="st1" d="M486.9,95v50h50L486.9,95z"/>
	<path class="st1" d="M536.9,95h50v50L536.9,95z"/>
	<path class="st1" d="M536.9,95v50h50L536.9,95z"/>
	<path class="st1" d="M86.9,145h50v50L86.9,145z"/>
	<path class="st1" d="M86.9,145v50h50L86.9,145z"/>
	<path class="st1" d="M136.9,145h50v50L136.9,145z"/>
	<path class="st1" d="M136.9,145v50h50L136.9,145z"/>
	<path class="st1" d="M186.9,145h50v50L186.9,145z"/>
	<path class="st1" d="M186.9,145v50h50L186.9,145z"/>
	<path class="st1" d="M236.9,145h50v50L236.9,145z"/>
	<path class="st1" d="M236.9,145v50h50L236.9,145z"/>
	<path class="st1" d="M286.9,145h50v50L286.9,145z"/>
	<path class="st1" d="M286.9,145v50h50L286.9,145z"/>
	<path class="st1" d="M336.9,145h50v50L336.9,145z"/>
	<path class="st1" d="M336.9,145v50h50L336.9,145z"/>
	<path class="st1" d="M386.9,145h50v50L386.9,145z"/>
	<path class="st1" d="M386.9,145v50h50L386.9,145z"/>
	<path class="st1" d="M436.9,145h50v50L436.9,145z"/>
	<path class="st1" d="M436.9,145v50h50L436.9,145z"/>
	<path class="st1" d="M486.9,145h50v50L486.9,145z"/>
	<path class="st1" d="M486.9,145v50h50L486.9,145z"/>
	<path class="st1" d="M536.9,145h50v50L536.9,145z"/>
	<path class="st1" d="M536.9,145v50h50L536.9,145z"/>
	<path class="st1" d="M86.9,195h50v50L86.9,195z"/>
	<path class="st1" d="M86.9,195v50h50L86.9,195z"/>
	<path class="st1" d="M136.9,195h50v50L136.9,195z"/>
	<path class="st1" d="M136.9,195v50h50L136.9,195z"/>
	<path class="st1" d="M186.9,195h50v50L186.9,195z"/>
	<path class="st1" d="M186.9,195v50h50L186.9,195z"/>
	<path class="st1" d="M236.9,195h50v50L236.9,195z"/>
	<path class="st1" d="M236.9,195v50h50L236.9,195z"/>
	<path class="st1" d="M286.9,195h50v50L286.9,195z"/>
	<path class="st1" d="M286.9,195v50h50L286.9,195z"/>
	<path class="st1" d="M336.9,195h50v50L336.9,195z"/>
	<path class="st1" d="M336.9,195v50h50L336.9,195z"/>
	<path class="st1" d="M386.9,195h50v50L386.9,195z"/>
	<path class="st1" d="M386.9,195v50h50L386.9,195z"/>
	<path class="st1" d="M436.9,195h50v50L436.9,195z"/>
	<path class="st1" d="M436.9,195v50h50L436.9,195z"/>
	<path class="st1" d="M486.9,195h50v50L486.9,195z"/>
	<path class="st1" d="M486.9,195v50h50L486.9,195z"/>
	<path class="st1" d="M536.9,195h50v50L536.9,195z"/>
	<path class="st1" d="M536.9,195v50h50L536.9,195z"/>
	<path class="st1" d="M86.9,245h50v50L86.9,245z"/>
	<path class="st1" d="M86.9,245v50h50L86.9,245z"/>
	<path class="st1" d="M136.9,245h50v50L136.9,245z"/>
	<path class="st1" d="M136.9,245v50h50L136.9,245z"/>
	<path class="st1" d="M186.9,245h50v50L186.9,245z"/>
	<path class="st1" d="M186.9,245v50h50L186.9,245z"/>
	<path class="st1" d="M236.9,245h50v50L236.9,245z"/>
	<path class="st1" d="M236.9,245v50h50L236.9,245z"/>
	<path class="st1" d="M286.9,245h50v50L286.9,245z"/>
	<path class="st1" d="M286.9,245v50h50L286.9,245z"/>
	<path class="st1" d="M336.9,245h50v50L336.9,245z"/>
	<path class="st1" d="M336.9,245v50h50L336.9,245z"/>
	<path class="st1" d="M386.9,245h50v50L386.9,245z"/>
	<path class="st1" d="M386.9,245v50h50L386.9,245z"/>
	<path class="st1" d="M436.9,245h50v50L436.9,245z"/>
	<path class="st1" d="M436.9,245v50h50L436.9,245z"/>
	<path class="st1" d="M486.9,245h50v50L486.9,245z"/>
	<path class="st1" d="M486.9,245v50h50L486.9,245z"/>
	<path class="st1" d="M536.9,245h50v50L536.9,245z"/>
	<path class="st1" d="M536.9,245v50h50L536.9,245z"/>
	<path class="st1" d="M86.9,295h50v50L86.9,295z"/>
	<path class="st1" d="M86.9,295v50h50L86.9,295z"/>
	<path class="st1" d="M136.9,295h50v50L136.9,295z"/>
	<path class="st1" d="M136.9,295v50h50L136.9,295z"/>
	<path class="st1" d="M186.9,295h50v50L186.9,295z"/>
	<path class="st1" d="M186.9,295v50h50L186.9,295z"/>
	<path class="st1" d="M236.9,295h50v50L236.9,295z"/>
	<path class="st1" d="M236.9,295v50h50L236.9,295z"/>
	<path class="st1" d="M286.9,295h50v50L286.9,295z"/>
	<path class="st1" d="M286.9,295v50h50L286.9,295z"/>
	<path class="st1" d="M336.9,295h50v50L336.9,295z"/>
	<path class="st1" d="M336.9,295v50h50L336.9,295z"/>
	<path class="st1" d="M386.9,295h50v50L386.9,295z"/>
	<path class="st1" d="M386.9,295v50h50L386.9,295z"/>
	<path class="st1" d="M436.9,295h50v50L436.9,295z"/>
	<path class="st1" d="M436.9,295v50h50L436.9,295z"/>
	<path class="st1" d="M486.9,295h50v50L486.9,295z"/>
	<path class="st1" d="M486.9,295v50h50L486.9,295z"/>
	<path class="st1" d="M536.9,295h50v50L536.9,295z"/>
	<path class="st1" d="M536.9,295v50h50L536.9,295z"/>
	<path class="st1" d="M86.9,345h50v50L86.9,345z"/>
	<path class="st1" d="M86.9,345v50h50L86.9,345z"/>
	<path class="st1" d="M136.9,345h50v50L136.9,345z"/>
	<path class="st1" d="M136.9,345v50h50L136.9,345z"/>
	<path class="st1" d="M186.9,345h50v50L186.9,345z"/>
	<path class="st1" d="M186.9,345v50h50L186.9,345z"/>
	<path class="st1" d="M236.9,345h50v50L236.9,345z"/>
	<path class="st1" d="M236.9,345v50h50L236.9,345z"/>
	<path class="st1" d="M286.9,345h50v50L286.9,345z"/>
	<path class="st1" d="M286.9,345v50h50L286.9,345z"/>
	<path class="st1" d="M336.9,345h50v50L336.9,345z"/>
	<path class="st1" d="M336.9,345v50h50L336.9,345z"/>
	<path class="st1" d="M386.9,345h50v50L386.9,345z"/>
	<path class="st1" d="M386.9,345v50h50L386.9,345z"/>
	<path class="st1" d="M436.9,345h50v50L436.9,345z"/>
	<path class="st1" d="M436.9,345v50h50L436.9,345z"/>
	<path class="st1" d="M486.9,345h50v50L486.9,345z"/>
	<path class="st1" d="M486.9,345v50h50L486.9,345z"/>
	<path class="st1" d="M536.9,345h50v50L536.9,345z"/>
	<path class="st1" d="M536.9,345v50h50L536.9,345z"/>
	<path class="st1" d="M86.9,395h50v50L86.9,395z"/>
	<path class="st1" d="M86.9,395v50h50L86.9,395z"/>
	<path class="st1" d="M136.9,395h50v50L136.9,395z"/>
	<path class="st1" d="M136.9,395v50h50L136.9,395z"/>
	<path class="st1" d="M186.9,395h50v50L186.9,395z"/>
	<path class="st1" d="M186.9,395v50h50L186.9,395z"/>
	<path class="st1" d="M236.9,395h50v50L236.9,395z"/>
	<path class="st1" d="M236.9,395v50h50L236.9,395z"/>
	<path class="st1" d="M286.9,395h50v50L286.9,395z"/>
	<path class="st1" d="M286.9,395v50h50L286.9,395z"/>
	<path class="st1" d="M336.9,395h50v50L336.9,395z"/>
	<path class="st1" d="M336.9,395v50h50L336.9,395z"/>
	<path class="st1" d="M386.9,395h50v50L386.9,395z"/>
	<path class="st1" d="M386.9,395v50h50L386.9,395z"/>
	<path class="st1" d="M436.9,395h50v50L436.9,395z"/>
	<path class="st1" d="M436.9,395v50h50L436.9,395z"/>
	<path class="st1" d="M486.9,395h50v50L486.9,395z"/>
	<path class="st1" d="M486.9,395v50h50L486.9,395z"/>
	<path class="st1" d="M536.9,395h50v50L536.9,395z"/>
	<path class="st1" d="M536.9,395v50h50L536.9,395z"/>
	<path class="st1" d="M86.9,445h50v50L86.9,445z"/>
	<path class="st1" d="M86.9,445v50h50L86.9,445z"/>
	<path class="st1" d="M136.9,445h50v50L136.9,445z"/>
	<path class="st1" d="M136.9,445v50h50L136.9,445z"/>
	<path class="st1" d="M186.9,445h50v50L186.9,445z"/>
	<path class="st1" d="M186.9,445v50h50L186.9,445z"/>
	<path class="st1" d="M236.9,445h50v50L236.9,445z"/>
	<path class="st1" d="M236.9,445v50h50L236.9,445z"/>
	<path class="st1" d="M286.9,445h50v50L286.9,445z"/>
	<path class="st1" d="M286.9,445v50h50L286.9,445z"/>
	<path class="st1" d="M336.9,445h50v50L336.9,445z"/>
	<path class="st1" d="M336.9,445v50h50L336.9,445z"/>
	<path class="st1" d="M386.9,445h50v50L386.9,445z"/>
	<path class="st1" d="M386.9,445v50h50L386.9,445z"/>
	<path class="st1" d="M436.9,445h50v50L436.9,445z"/>
	<path class="st1" d="M436.9,445v50h50L436.9,445z"/>
	<path class="st1" d="M486.9,445h50v50L486.9,445z"/>
	<path class="st1" d="M486.9,445v50h50L486.9,445z"/>
	<path class="st1" d="M536.9,445h50v50L536.9,445z"/>
	<path class="st1" d="M536.9,445v50h50L536.9,445z"/>
	<path class="st1" d="M86.9,495h50v50L86.9,495z"/>
	<path class="st1" d="M86.9,495v50h50L86.9,495z"/>
	<path class="st1" d="M136.9,495h50v50L136.9,495z"/>
	<path class="st1" d="M136.9,495v50h50L136.9,495z"/>
	<path class="st1" d="M186.9,495h50v50L186.9,495z"/>
	<path class="st1" d="M186.9,495v50h50L186.9,495z"/>
	<path class="st1" d="M236.9,495h50v50L236.9,495z"/>
	<path class="st1" d="M236.9,495v50h50L236.9,495z"/>
	<path class="st1" d="M286.9,495h50v50L286.9,495z"/>
	<path class="st1" d="M286.9,495v50h50L286.9,495z"/>
	<path class="st1" d="M336.9,495h50v50L336.9,495z"/>
	<path class="st1" d="M336.9,495v50h50L336.9,495z"/>
	<path class="st1" d="M386.9,495h50v50L386.9,495z"/>
	<path class="st1" d="M386.9,495v50h50L386.9,495z"/>
	<path class="st1" d="M436.9,495h50v50L436.9,495z"/>
	<path class="st1" d="M436.9,495v50h50L436.9,495z"/>
	<path class="st1" d="M486.9,495h50v50L486.9,495z"/>
	<path class="st1" d="M486.9,495v50h50L486.9,495z"/>
	<path class="st1" d="M536.9,495h50v50L536.9,495z"/>
	<path class="st1" d="M536.9,495v50h50L536.9,495z"/>
	<path class="st1" d="M86.9,545h50v50L86.9,545z"/>
	<path class="st1" d="M86.9,545v50h50L86.9,545z"/>
	<path class="st1" d="M136.9,545h50v50L136.9,545z"/>
	<path class="st1" d="M136.9,545v50h50L136.9,545z"/>
	<path class="st1" d="M186.9,545h50v50L186.9,545z"/>
	<path class="st1" d="M186.9,545v50h50L186.9,545z"/>
	<path class="st1" d="M236.9,545h50v50L236.9,545z"/>
	<path class="st1" d="M236.9,545v50h50L236.9,545z"/>
	<path class="st1" d="M286.9,545h50v50L286.9,545z"/>
	<path class="st1" d="M286.9,545v50h50L286.9,545z"/>
	<path class="st1" d="M336.9,545h50v50L336.9,545z"/>
	<path class="st1" d="M336.9,545v50h50L336.9,545z"/>
	<path class="st1" d="M386.9,545h50v50L386.9,545z"/>
	<path class="st1" d="M386.9,545v50h50L386.9,545z"/>
	<path class="st1" d="M436.9,545h50v50L436.9,545z"/>
	<path class="st1" d="M436.9,545v50h50L436.9,545z"/>
	<path class="st1" d="M486.9,545h50v50L486.9,545z"/>
	<path class="st1" d="M486.9,545v50h50L486.9,545z"/>
	<path class="st1" d="M536.9,545h50v50L536.9,545z"/>
	<path class="st1" d="M536.9,545v50h50L536.9,545z"/>
</g>
</svg>
